<?xml version="1.0" encoding="UTF-8" standalone="no"?>
<!-- Created with Inkscape (http://www.inkscape.org/) -->

<svg
   version="1.1"
   id="svg132"
   width="582.66669"
   height="377.33334"
   viewBox="0 0 582.66669 377.33334"
   sodipodi:docname="Qc_sorted.svg"
   inkscape:version="1.2.2 (b0a8486541, 2022-12-01)"
   xmlns:inkscape="http://www.inkscape.org/namespaces/inkscape"
   xmlns:sodipodi="http://sodipodi.sourceforge.net/DTD/sodipodi-0.dtd"
   xmlns="http://www.w3.org/2000/svg"
   xmlns:svg="http://www.w3.org/2000/svg">
  <defs
     id="defs136" />
  <sodipodi:namedview
     id="namedview134"
     pagecolor="#ffffff"
     bordercolor="#666666"
     borderopacity="1.0"
     inkscape:showpageshadow="2"
     inkscape:pageopacity="0.0"
     inkscape:pagecheckerboard="0"
     inkscape:deskcolor="#d1d1d1"
     showgrid="false"
     inkscape:zoom="1.6607987"
     inkscape:cx="292.93134"
     inkscape:cy="192.97944"
     inkscape:window-width="1920"
     inkscape:window-height="991"
     inkscape:window-x="-9"
     inkscape:window-y="-9"
     inkscape:window-maximized="1"
     inkscape:current-layer="g140">
    <inkscape:page
       x="0"
       y="0"
       id="page138"
       width="582.66669"
       height="377.33334" />
  </sodipodi:namedview>
  <g
     id="g140"
     inkscape:groupmode="layer"
     inkscape:label="Page 1"
     transform="matrix(1.3333333,0,0,-1.3333333,0,377.33333)"
     style="display:inline">
    <g
       id="g142"
       transform="scale(0.1)"
       style="display:inline">
      <path
         d="M 342,294 H 2076 V 2436 H 342 Z"
         style="fill:#ffffff;fill-opacity:1;fill-rule:nonzero;stroke:none"
         id="path146" />
      <path
         d="M 342,294 H 2076"
         style="fill:none;stroke:#262626;stroke-width:4.998;stroke-linecap:square;stroke-linejoin:round;stroke-miterlimit:10;stroke-dasharray:none;stroke-opacity:1"
         id="path148" />
      <path
         d="M 342,2436 H 2076"
         style="fill:none;stroke:#262626;stroke-width:4.998;stroke-linecap:square;stroke-linejoin:round;stroke-miterlimit:10;stroke-dasharray:none;stroke-opacity:1"
         id="path150" />
      <path
         d="m 342,294 v 21.422"
         style="fill:none;stroke:#262626;stroke-width:4.998;stroke-linecap:square;stroke-linejoin:round;stroke-miterlimit:10;stroke-dasharray:none;stroke-opacity:1"
         id="path152" />
      <path
         d="m 883.879,294 v 21.422"
         style="fill:none;stroke:#262626;stroke-width:4.998;stroke-linecap:square;stroke-linejoin:round;stroke-miterlimit:10;stroke-dasharray:none;stroke-opacity:1"
         id="path154" />
      <path
         d="m 1425.75,294 v 21.422"
         style="fill:none;stroke:#262626;stroke-width:4.998;stroke-linecap:square;stroke-linejoin:round;stroke-miterlimit:10;stroke-dasharray:none;stroke-opacity:1"
         id="path156" />
      <path
         d="m 1967.63,294 v 21.422"
         style="fill:none;stroke:#262626;stroke-width:4.998;stroke-linecap:square;stroke-linejoin:round;stroke-miterlimit:10;stroke-dasharray:none;stroke-opacity:1"
         id="path158" />
      <path
         d="m 342,2436 v -21.42"
         style="fill:none;stroke:#262626;stroke-width:4.998;stroke-linecap:square;stroke-linejoin:round;stroke-miterlimit:10;stroke-dasharray:none;stroke-opacity:1"
         id="path160" />
      <path
         d="m 883.879,2436 v -21.42"
         style="fill:none;stroke:#262626;stroke-width:4.998;stroke-linecap:square;stroke-linejoin:round;stroke-miterlimit:10;stroke-dasharray:none;stroke-opacity:1"
         id="path162" />
      <path
         d="m 1425.75,2436 v -21.42"
         style="fill:none;stroke:#262626;stroke-width:4.998;stroke-linecap:square;stroke-linejoin:round;stroke-miterlimit:10;stroke-dasharray:none;stroke-opacity:1"
         id="path164" />
      <path
         d="m 1967.63,2436 v -21.42"
         style="fill:none;stroke:#262626;stroke-width:4.998;stroke-linecap:square;stroke-linejoin:round;stroke-miterlimit:10;stroke-dasharray:none;stroke-opacity:1"
         id="path166" />
      <g
         id="g168"
         transform="scale(10)">
        <text
           xml:space="preserve"
           transform="matrix(1,0,0,-1,31.5,16.4)"
           style="font-variant:normal;font-weight:normal;font-size:9.4998px;font-family:Helvetica;-inkscape-font-specification:Helvetica;writing-mode:lr-tb;fill:#262626;fill-opacity:1;fill-rule:nonzero;stroke:none"
           id="text172"><tspan
             x="0 51.487492 56.769379 105.67502 110.9569 159.86253 165.14442"
             y="0"
             sodipodi:role="line"
             id="tspan170">0204060</tspan></text>
        <text
           xml:space="preserve"
           transform="matrix(1,0,0,-1,87.9,2.45)"
           style="font-variant:normal;font-weight:normal;font-size:10.4502px;font-family:Helvetica;-inkscape-font-specification:Helvetica;writing-mode:lr-tb;fill:#262626;fill-opacity:1;fill-rule:nonzero;stroke:none"
           id="text176"><tspan
             x="0 5.2251 11.035411 14.515327 17.420483 23.230795 29.041105 31.94626 34.266205 42.971222 48.781532 54.591846 60.402157"
             y="0"
             sodipodi:role="line"
             id="tspan174">sorted images</tspan></text>
      </g>
      <path
         d="M 342,294 V 2436"
         style="fill:none;stroke:#262626;stroke-width:4.998;stroke-linecap:square;stroke-linejoin:round;stroke-miterlimit:10;stroke-dasharray:none;stroke-opacity:1"
         id="path178" />
      <path
         d="M 2076,294 V 2436"
         style="fill:none;stroke:#262626;stroke-width:4.998;stroke-linecap:square;stroke-linejoin:round;stroke-miterlimit:10;stroke-dasharray:none;stroke-opacity:1"
         id="path180" />
      <path
         d="m 342,294 h 21.422"
         style="fill:none;stroke:#262626;stroke-width:4.998;stroke-linecap:square;stroke-linejoin:round;stroke-miterlimit:10;stroke-dasharray:none;stroke-opacity:1"
         id="path182" />
      <path
         d="m 342,532.004 h 21.422"
         style="fill:none;stroke:#262626;stroke-width:4.998;stroke-linecap:square;stroke-linejoin:round;stroke-miterlimit:10;stroke-dasharray:none;stroke-opacity:1"
         id="path184" />
      <path
         d="m 342,770 h 21.422"
         style="fill:none;stroke:#262626;stroke-width:4.998;stroke-linecap:square;stroke-linejoin:round;stroke-miterlimit:10;stroke-dasharray:none;stroke-opacity:1"
         id="path186" />
      <path
         d="m 342,1008 h 21.422"
         style="fill:none;stroke:#262626;stroke-width:4.998;stroke-linecap:square;stroke-linejoin:round;stroke-miterlimit:10;stroke-dasharray:none;stroke-opacity:1"
         id="path188" />
      <path
         d="m 342,1246 h 21.422"
         style="fill:none;stroke:#262626;stroke-width:4.998;stroke-linecap:square;stroke-linejoin:round;stroke-miterlimit:10;stroke-dasharray:none;stroke-opacity:1"
         id="path190" />
      <path
         d="m 342,1484 h 21.422"
         style="fill:none;stroke:#262626;stroke-width:4.998;stroke-linecap:square;stroke-linejoin:round;stroke-miterlimit:10;stroke-dasharray:none;stroke-opacity:1"
         id="path192" />
      <path
         d="m 342,1722 h 21.422"
         style="fill:none;stroke:#262626;stroke-width:4.998;stroke-linecap:square;stroke-linejoin:round;stroke-miterlimit:10;stroke-dasharray:none;stroke-opacity:1"
         id="path194" />
      <path
         d="m 342,1960 h 21.422"
         style="fill:none;stroke:#262626;stroke-width:4.998;stroke-linecap:square;stroke-linejoin:round;stroke-miterlimit:10;stroke-dasharray:none;stroke-opacity:1"
         id="path196" />
      <path
         d="m 342,2198 h 21.422"
         style="fill:none;stroke:#262626;stroke-width:4.998;stroke-linecap:square;stroke-linejoin:round;stroke-miterlimit:10;stroke-dasharray:none;stroke-opacity:1"
         id="path198" />
      <path
         d="m 342,2436 h 21.422"
         style="fill:none;stroke:#262626;stroke-width:4.998;stroke-linecap:square;stroke-linejoin:round;stroke-miterlimit:10;stroke-dasharray:none;stroke-opacity:1"
         id="path200" />
      <path
         d="m 2076,294 h -21.42"
         style="fill:none;stroke:#262626;stroke-width:4.998;stroke-linecap:square;stroke-linejoin:round;stroke-miterlimit:10;stroke-dasharray:none;stroke-opacity:1"
         id="path202" />
      <path
         d="m 2076,532.004 h -21.42"
         style="fill:none;stroke:#262626;stroke-width:4.998;stroke-linecap:square;stroke-linejoin:round;stroke-miterlimit:10;stroke-dasharray:none;stroke-opacity:1"
         id="path204" />
      <path
         d="m 2076,770 h -21.42"
         style="fill:none;stroke:#262626;stroke-width:4.998;stroke-linecap:square;stroke-linejoin:round;stroke-miterlimit:10;stroke-dasharray:none;stroke-opacity:1"
         id="path206" />
      <path
         d="m 2076,1008 h -21.42"
         style="fill:none;stroke:#262626;stroke-width:4.998;stroke-linecap:square;stroke-linejoin:round;stroke-miterlimit:10;stroke-dasharray:none;stroke-opacity:1"
         id="path208" />
      <path
         d="m 2076,1246 h -21.42"
         style="fill:none;stroke:#262626;stroke-width:4.998;stroke-linecap:square;stroke-linejoin:round;stroke-miterlimit:10;stroke-dasharray:none;stroke-opacity:1"
         id="path210" />
      <path
         d="m 2076,1484 h -21.42"
         style="fill:none;stroke:#262626;stroke-width:4.998;stroke-linecap:square;stroke-linejoin:round;stroke-miterlimit:10;stroke-dasharray:none;stroke-opacity:1"
         id="path212" />
      <path
         d="m 2076,1722 h -21.42"
         style="fill:none;stroke:#262626;stroke-width:4.998;stroke-linecap:square;stroke-linejoin:round;stroke-miterlimit:10;stroke-dasharray:none;stroke-opacity:1"
         id="path214" />
      <path
         d="m 2076,1960 h -21.42"
         style="fill:none;stroke:#262626;stroke-width:4.998;stroke-linecap:square;stroke-linejoin:round;stroke-miterlimit:10;stroke-dasharray:none;stroke-opacity:1"
         id="path216" />
      <path
         d="m 2076,2198 h -21.42"
         style="fill:none;stroke:#262626;stroke-width:4.998;stroke-linecap:square;stroke-linejoin:round;stroke-miterlimit:10;stroke-dasharray:none;stroke-opacity:1"
         id="path218" />
      <path
         d="m 2076,2436 h -21.42"
         style="fill:none;stroke:#262626;stroke-width:4.998;stroke-linecap:square;stroke-linejoin:round;stroke-miterlimit:10;stroke-dasharray:none;stroke-opacity:1"
         id="path220" />
      <g
         id="g222"
         transform="scale(10)">
        <text
           xml:space="preserve"
           transform="matrix(1,0,0,-1,25.4,25.8)"
           style="font-variant:normal;font-weight:normal;font-size:9.4998px;font-family:Helvetica;-inkscape-font-specification:Helvetica;writing-mode:lr-tb;fill:#262626;fill-opacity:1;fill-rule:nonzero;stroke:none"
           id="text244"><tspan
             x="0"
             y="0"
             id="tspan224">0</tspan><tspan
             x="-7.8000002 -2.5181112 0.1228332"
             y="-23.799999"
             sodipodi:role="line"
             id="tspan226">0.5</tspan><tspan
             x="0"
             y="-47.599998"
             id="tspan228">1</tspan><tspan
             x="-7.8000002 -2.5181112 0.1228332"
             y="-71.400002"
             sodipodi:role="line"
             id="tspan230">1.5</tspan><tspan
             x="0"
             y="-95.199997"
             id="tspan232">2</tspan><tspan
             x="-7.8000002 -2.5181112 0.1228332"
             y="-119"
             sodipodi:role="line"
             id="tspan234">2.5</tspan><tspan
             x="0"
             y="-142.8"
             id="tspan236">3</tspan><tspan
             x="-7.8000002 -2.5181112 0.1228332"
             y="-166.60001"
             sodipodi:role="line"
             id="tspan238">3.5</tspan><tspan
             x="0"
             y="-190.39999"
             id="tspan240">4</tspan><tspan
             x="-7.8000002 -2.5181112 0.1228332"
             y="-214.2"
             sodipodi:role="line"
             id="tspan242">4.5</tspan></text>
        <text
           xml:space="preserve"
           transform="matrix(0,1,1,0,7.8,112.2)"
           style="font-variant:normal;font-weight:normal;font-size:10.4502px;font-family:Helvetica;-inkscape-font-specification:Helvetica;writing-mode:lr-tb;fill:#262626;fill-opacity:1;fill-rule:nonzero;stroke:none"
           id="text248"><tspan
             x="0"
             y="0"
             id="tspan246">Q</tspan></text>
        <text
           xml:space="preserve"
           transform="matrix(0,1,1,0,12.6,120.6)"
           style="font-variant:normal;font-weight:normal;font-size:8.3598px;font-family:Helvetica;-inkscape-font-specification:Helvetica;writing-mode:lr-tb;fill:#262626;fill-opacity:1;fill-rule:nonzero;stroke:none"
           id="text252"><tspan
             x="0"
             y="0"
             id="tspan250">C</tspan></text>
        <text
           xml:space="preserve"
           transform="matrix(0,1,1,0,7.8,130.10516)"
           style="font-variant:normal;font-weight:normal;font-size:10.4502px;font-family:Helvetica;-inkscape-font-specification:Helvetica;writing-mode:lr-tb;fill:#262626;fill-opacity:1;fill-rule:nonzero;stroke:none"
           id="text256"><tspan
             x="0 5.2251 10.4502 16.260511 19.740427 25.550739"
             y="0"
             sodipodi:role="line"
             id="tspan254">scores</tspan></text>
      </g>
      <g
         id="g258"
         transform="scale(10)">
        <text
           xml:space="preserve"
           transform="matrix(1,0,0,-1,98.4,247.568)"
           style="font-variant:normal;font-weight:bold;font-size:10.4502px;font-family:Helvetica;-inkscape-font-specification:Helvetica-Bold;writing-mode:lr-tb;fill:#000000;fill-opacity:1;fill-rule:nonzero;stroke:none"
           id="text262"><tspan
             x="0 6.3850722 12.195383 18.005695 22.070822 27.881134 30.786289 36.5966"
             y="0"
             sodipodi:role="line"
             id="tspan260">overview</tspan></text>
      </g>
      <path
         d="m 369.098,555.961 27.09,44.141 27.093,-31.387 27.098,1782.055 27.09,-1722.262 27.094,-5.336 27.089,2.629 27.098,10.969 27.098,-14.536 27.09,20.246 27.093,7.321 27.098,-7.699 27.09,8.257 27.094,-16.875 27.089,10.696 27.098,13.937 27.098,-0.746 27.09,9.801 27.093,1.043 27.098,-14.93 27.09,10.778 27.094,-1.598 27.089,12.848 27.098,-15.528 27.1,18.75 27.09,6.899 27.09,-1.375 27.1,-11.981 27.09,2.75 27.09,12.813 27.09,15.144 27.1,-27.07 27.1,3.191 27.09,5.18 27.09,-7.496 27.1,24.762 27.09,-20.579 27.09,7.5 27.09,-5.871 27.1,9.223 27.1,5.531 27.09,-7.961 27.09,17.907 27.1,-23.809 27.09,16.727 27.09,-5.989 27.09,-2.508 27.1,-3.515 27.1,30.637 27.09,-7.801 27.09,0.746 27.1,-5.305 27.09,9.942 27.09,-15.536 27.09,8.586 27.1,1.297 27.1,2.184 27.09,3.144 27.09,3.391 27.1,-4.898 27.09,1.175 27.09,-2.027 27.09,-2.465"
         style="fill:none;stroke:#ff0000;stroke-width:4.998;stroke-linecap:butt;stroke-linejoin:round;stroke-miterlimit:10;stroke-dasharray:none;stroke-opacity:1"
         id="path264" />
      <path
         d="m 369.098,509.34 27.09,54.469 27.093,13.8 27.098,34.918 27.09,20.18 27.094,12.316 27.089,2.75 27.098,2.309 27.098,15.07 27.09,2.707 27.093,0.618 27.098,2.257 27.09,2.532 27.094,1.074 27.089,0.066 27.098,1.637 27.098,3.879 27.09,0.406 27.093,0.762 27.098,3.875 27.09,0.523 27.094,1.895 27.089,0.89 27.098,2.262 27.1,5.242 27.09,0.067 27.09,0.246 27.1,0.148 27.09,1.789 27.09,0.926 27.09,0.942 27.1,0.109 27.1,0.851 27.09,0.516 27.09,1.859 27.1,1.399 27.09,0.226 27.09,0.458 27.09,0.191 27.1,0.258 27.1,0.636 27.09,0.719 27.09,0.602 27.1,0.324 27.09,0.699 27.09,1.004 27.09,0.238 27.1,2.536 27.1,2.195 27.09,0.707 27.09,0.187 27.1,1.075 27.09,0.082 27.09,0.097 27.09,0.196 27.1,0.265 27.1,0.461 27.09,0.492 27.09,4.008 27.1,2.059 27.09,3.976 27.09,1.641 27.09,1.187"
         style="fill:none;stroke:#00ff00;stroke-width:4.998;stroke-linecap:butt;stroke-linejoin:round;stroke-miterlimit:10;stroke-dasharray:none;stroke-opacity:1"
         id="path266" />
      <path
         d="m 369.098,631.297 27.09,-11.492 27.093,-46.168 27.098,101.652 27.09,-26.699 27.094,-3.488 27.089,-7.067 27.098,-13.129 27.098,35.742 27.09,-14.398 27.093,-6.598 27.098,22.52 27.09,-2.399 27.094,7.582 27.089,-2.64 27.098,3.515 27.098,7.372 27.09,-19.411 27.093,24.985 27.098,-8.278 27.09,2.504 27.094,-1.871 27.089,0.395 27.098,3.422 27.1,4.914 27.09,-3.481 27.09,4.602 27.1,0.906 27.09,4.055 27.09,-10.422 27.09,-9.402 27.1,27.55 27.1,-10.5 27.09,1.063 27.09,9.89 27.1,-6.621 27.09,26.055 27.09,-21.566 27.09,-23.442 27.1,22.789 27.1,-4.008 27.09,-7.261 27.09,-0.317 27.1,15.223 27.09,-6.387 27.09,6.028 27.09,4.152 27.1,9.711 27.1,-29.027 27.09,17.855 27.09,-3.184 27.1,12.118 27.09,-22.996 27.09,22.777 27.09,-6.504 27.1,-8.176 27.1,4.699 27.09,7.793 27.09,-1.332 27.1,7.016 27.09,10.066 27.09,8.407 27.09,-6.274"
         style="fill:none;stroke:#0000ff;stroke-width:4.998;stroke-linecap:butt;stroke-linejoin:round;stroke-miterlimit:10;stroke-dasharray:none;stroke-opacity:1"
         id="path268" />
      <path
         d="m 894,1974 h 1110 v 384 H 894 Z"
         style="fill:#ffffff;fill-opacity:1;fill-rule:nonzero;stroke:none"
         id="path270" />
      <g
         id="g272"
         transform="scale(10)">
        <text
           xml:space="preserve"
           transform="matrix(1,0,0,-1,124.698,225.214)"
           style="font-variant:normal;font-weight:normal;font-size:8.55px;font-family:Helvetica;-inkscape-font-specification:Helvetica;writing-mode:lr-tb;fill:#000000;fill-opacity:1;fill-rule:nonzero;stroke:none"
           id="text276"><tspan
             x="0 8.0712004 12.825 17.1 21.8538 23.7519 28.505699 30.882601 33.259499 38.483551 41.3307 46.084499 50.838299 55.1133 57.4902 62.243999 65.091148"
             y="0"
             sodipodi:role="line"
             id="tspan274">Wavelet Transform</tspan></text>
      </g>
      <path
         d="M 924.043,2285.15 H 1224.45"
         style="fill:none;stroke:#ff0000;stroke-width:4.998;stroke-linecap:butt;stroke-linejoin:round;stroke-miterlimit:10;stroke-dasharray:none;stroke-opacity:1"
         id="path278" />
      <g
         id="g280"
         transform="scale(10)">
        <text
           xml:space="preserve"
           transform="matrix(1,0,0,-1,124.698,213.3)"
           style="font-variant:normal;font-weight:normal;font-size:8.55px;font-family:Helvetica;-inkscape-font-specification:Helvetica;writing-mode:lr-tb;fill:#000000;fill-opacity:1;fill-rule:nonzero;stroke:none"
           id="text284"><tspan
             x="0 6.6518998 11.4057 13.3038 18.0576 22.811399 27.565201 29.942101 35.166149 37.064251 38.962349 41.339249 46.093048 48.940201 50.838299 55.592098"
             y="0"
             sodipodi:role="line"
             id="tspan282">Guided Filtering</tspan></text>
      </g>
      <path
         d="M 924.043,2166 H 1224.45"
         style="fill:none;stroke:#00ff00;stroke-width:4.998;stroke-linecap:butt;stroke-linejoin:round;stroke-miterlimit:10;stroke-dasharray:none;stroke-opacity:1"
         id="path286" />
      <g
         id="g288"
         transform="scale(10)">
        <text
           xml:space="preserve"
           transform="matrix(1,0,0,-1,124.698,201.386)"
           style="font-variant:normal;font-weight:normal;font-size:8.55px;font-family:Helvetica;-inkscape-font-specification:Helvetica;writing-mode:lr-tb;fill:#000000;fill-opacity:1;fill-rule:nonzero;stroke:none"
           id="text292"><tspan
             x="0 7.1221499 11.87595 14.25285 16.150949 20.904751 25.65855 28.03545 34.208549 36.585449 41.339249 45.61425 47.512348 54.634499"
             y="0"
             sodipodi:role="line"
             id="tspan290">Matlab wfusimg</tspan></text>
      </g>
      <path
         d="M 924.043,2046.85 H 1224.45"
         style="fill:none;stroke:#0000ff;stroke-width:4.998;stroke-linecap:butt;stroke-linejoin:round;stroke-miterlimit:10;stroke-dasharray:none;stroke-opacity:1"
         id="path294" />
      <path
         d="m 894,1974 h 1110 v 384 H 894 Z"
         style="fill:none;stroke:#262626;stroke-width:4.998;stroke-linecap:butt;stroke-linejoin:miter;stroke-miterlimit:10;stroke-dasharray:none;stroke-opacity:1"
         id="path296" />
      <path
         d="M 2628,294 H 4362 V 2436 H 2628 Z"
         style="fill:#ffffff;fill-opacity:1;fill-rule:nonzero;stroke:none"
         id="path298" />
      <path
         d="M 2628,294 H 4362"
         style="fill:none;stroke:#262626;stroke-width:4.998;stroke-linecap:square;stroke-linejoin:round;stroke-miterlimit:10;stroke-dasharray:none;stroke-opacity:1"
         id="path300" />
      <path
         d="M 2628,2436 H 4362"
         style="fill:none;stroke:#262626;stroke-width:4.998;stroke-linecap:square;stroke-linejoin:round;stroke-miterlimit:10;stroke-dasharray:none;stroke-opacity:1"
         id="path302" />
      <path
         d="m 2628,294 v 21.422"
         style="fill:none;stroke:#262626;stroke-width:4.998;stroke-linecap:square;stroke-linejoin:round;stroke-miterlimit:10;stroke-dasharray:none;stroke-opacity:1"
         id="path304" />
      <path
         d="m 3169.88,294 v 21.422"
         style="fill:none;stroke:#262626;stroke-width:4.998;stroke-linecap:square;stroke-linejoin:round;stroke-miterlimit:10;stroke-dasharray:none;stroke-opacity:1"
         id="path306" />
      <path
         d="m 3711.75,294 v 21.422"
         style="fill:none;stroke:#262626;stroke-width:4.998;stroke-linecap:square;stroke-linejoin:round;stroke-miterlimit:10;stroke-dasharray:none;stroke-opacity:1"
         id="path308" />
      <path
         d="m 4253.63,294 v 21.422"
         style="fill:none;stroke:#262626;stroke-width:4.998;stroke-linecap:square;stroke-linejoin:round;stroke-miterlimit:10;stroke-dasharray:none;stroke-opacity:1"
         id="path310" />
      <path
         d="m 2628,2436 v -21.42"
         style="fill:none;stroke:#262626;stroke-width:4.998;stroke-linecap:square;stroke-linejoin:round;stroke-miterlimit:10;stroke-dasharray:none;stroke-opacity:1"
         id="path312" />
      <path
         d="m 3169.88,2436 v -21.42"
         style="fill:none;stroke:#262626;stroke-width:4.998;stroke-linecap:square;stroke-linejoin:round;stroke-miterlimit:10;stroke-dasharray:none;stroke-opacity:1"
         id="path314" />
      <path
         d="m 3711.75,2436 v -21.42"
         style="fill:none;stroke:#262626;stroke-width:4.998;stroke-linecap:square;stroke-linejoin:round;stroke-miterlimit:10;stroke-dasharray:none;stroke-opacity:1"
         id="path316" />
      <path
         d="m 4253.63,2436 v -21.42"
         style="fill:none;stroke:#262626;stroke-width:4.998;stroke-linecap:square;stroke-linejoin:round;stroke-miterlimit:10;stroke-dasharray:none;stroke-opacity:1"
         id="path318" />
      <g
         id="g320"
         transform="scale(10)">
        <text
           xml:space="preserve"
           transform="matrix(1,0,0,-1,260.1,16.4)"
           style="font-variant:normal;font-weight:normal;font-size:9.4998px;font-family:Helvetica;-inkscape-font-specification:Helvetica;writing-mode:lr-tb;fill:#262626;fill-opacity:1;fill-rule:nonzero;stroke:none"
           id="text324"><tspan
             x="0 51.487492 56.769379 105.67502 110.9569 159.86253 165.14442"
             y="0"
             sodipodi:role="line"
             id="tspan322">0204060</tspan></text>
        <text
           xml:space="preserve"
           transform="matrix(1,0,0,-1,316.5,2.45)"
           style="font-variant:normal;font-weight:normal;font-size:10.4502px;font-family:Helvetica;-inkscape-font-specification:Helvetica;writing-mode:lr-tb;fill:#262626;fill-opacity:1;fill-rule:nonzero;stroke:none"
           id="text328"><tspan
             x="0 5.2251 11.035411 14.515327 17.420483 23.230795 29.041105 31.94626 34.266205 42.971222 48.781532 54.591846 60.402157"
             y="0"
             sodipodi:role="line"
             id="tspan326">sorted images</tspan></text>
      </g>
      <path
         d="M 2628,294 V 2436"
         style="fill:none;stroke:#262626;stroke-width:4.998;stroke-linecap:square;stroke-linejoin:round;stroke-miterlimit:10;stroke-dasharray:none;stroke-opacity:1"
         id="path330" />
      <path
         d="M 4362,294 V 2436"
         style="fill:none;stroke:#262626;stroke-width:4.998;stroke-linecap:square;stroke-linejoin:round;stroke-miterlimit:10;stroke-dasharray:none;stroke-opacity:1"
         id="path332" />
      <path
         d="m 2628,294 h 21.42"
         style="fill:none;stroke:#262626;stroke-width:4.998;stroke-linecap:square;stroke-linejoin:round;stroke-miterlimit:10;stroke-dasharray:none;stroke-opacity:1"
         id="path334" />
      <path
         d="m 2628,722.398 h 21.42"
         style="fill:none;stroke:#262626;stroke-width:4.998;stroke-linecap:square;stroke-linejoin:round;stroke-miterlimit:10;stroke-dasharray:none;stroke-opacity:1"
         id="path336" />
      <path
         d="m 2628,1150.8 h 21.42"
         style="fill:none;stroke:#262626;stroke-width:4.998;stroke-linecap:square;stroke-linejoin:round;stroke-miterlimit:10;stroke-dasharray:none;stroke-opacity:1"
         id="path338" />
      <path
         d="m 2628,1579.2 h 21.42"
         style="fill:none;stroke:#262626;stroke-width:4.998;stroke-linecap:square;stroke-linejoin:round;stroke-miterlimit:10;stroke-dasharray:none;stroke-opacity:1"
         id="path340" />
      <path
         d="m 2628,2007.6 h 21.42"
         style="fill:none;stroke:#262626;stroke-width:4.998;stroke-linecap:square;stroke-linejoin:round;stroke-miterlimit:10;stroke-dasharray:none;stroke-opacity:1"
         id="path342" />
      <path
         d="m 2628,2436 h 21.42"
         style="fill:none;stroke:#262626;stroke-width:4.998;stroke-linecap:square;stroke-linejoin:round;stroke-miterlimit:10;stroke-dasharray:none;stroke-opacity:1"
         id="path344" />
      <path
         d="m 4362,294 h -21.42"
         style="fill:none;stroke:#262626;stroke-width:4.998;stroke-linecap:square;stroke-linejoin:round;stroke-miterlimit:10;stroke-dasharray:none;stroke-opacity:1"
         id="path346" />
      <path
         d="m 4362,722.398 h -21.42"
         style="fill:none;stroke:#262626;stroke-width:4.998;stroke-linecap:square;stroke-linejoin:round;stroke-miterlimit:10;stroke-dasharray:none;stroke-opacity:1"
         id="path348" />
      <path
         d="m 4362,1150.8 h -21.42"
         style="fill:none;stroke:#262626;stroke-width:4.998;stroke-linecap:square;stroke-linejoin:round;stroke-miterlimit:10;stroke-dasharray:none;stroke-opacity:1"
         id="path350" />
      <path
         d="m 4362,1579.2 h -21.42"
         style="fill:none;stroke:#262626;stroke-width:4.998;stroke-linecap:square;stroke-linejoin:round;stroke-miterlimit:10;stroke-dasharray:none;stroke-opacity:1"
         id="path352" />
      <path
         d="m 4362,2007.6 h -21.42"
         style="fill:none;stroke:#262626;stroke-width:4.998;stroke-linecap:square;stroke-linejoin:round;stroke-miterlimit:10;stroke-dasharray:none;stroke-opacity:1"
         id="path354" />
      <path
         d="m 4362,2436 h -21.42"
         style="fill:none;stroke:#262626;stroke-width:4.998;stroke-linecap:square;stroke-linejoin:round;stroke-miterlimit:10;stroke-dasharray:none;stroke-opacity:1"
         id="path356" />
      <g
         id="g358"
         transform="scale(10)">
        <text
           xml:space="preserve"
           transform="matrix(1,0,0,-1,246.2,25.8)"
           style="font-variant:normal;font-weight:normal;font-size:9.4998px;font-family:Helvetica;-inkscape-font-specification:Helvetica;writing-mode:lr-tb;fill:#262626;fill-opacity:1;fill-rule:nonzero;stroke:none"
           id="text372"><tspan
             x="0 5.281889 7.922833"
             y="0"
             sodipodi:role="line"
             id="tspan360">0.5</tspan><tspan
             x="0 5.281889 7.922833"
             y="-42.839802"
             sodipodi:role="line"
             id="tspan362">0.6</tspan><tspan
             x="0 5.281889 7.922833"
             y="-85.68"
             sodipodi:role="line"
             id="tspan364">0.7</tspan><tspan
             x="0 5.281889 7.922833"
             y="-128.51981"
             sodipodi:role="line"
             id="tspan366">0.8</tspan><tspan
             x="0 5.281889 7.922833"
             y="-171.36"
             sodipodi:role="line"
             id="tspan368">0.9</tspan><tspan
             x="7.8000002"
             y="-214.1998"
             id="tspan370">1</tspan></text>
        <text
           xml:space="preserve"
           transform="matrix(0,1,1,0,236.4,112.2)"
           style="font-variant:normal;font-weight:normal;font-size:10.4502px;font-family:Helvetica;-inkscape-font-specification:Helvetica;writing-mode:lr-tb;fill:#262626;fill-opacity:1;fill-rule:nonzero;stroke:none"
           id="text376"><tspan
             x="0"
             y="0"
             id="tspan374">Q</tspan></text>
        <text
           xml:space="preserve"
           transform="matrix(0,1,1,0,241.2,120.6)"
           style="font-variant:normal;font-weight:normal;font-size:8.3598px;font-family:Helvetica;-inkscape-font-specification:Helvetica;writing-mode:lr-tb;fill:#262626;fill-opacity:1;fill-rule:nonzero;stroke:none"
           id="text380"><tspan
             x="0"
             y="0"
             id="tspan378">C</tspan></text>
        <text
           xml:space="preserve"
           transform="matrix(0,1,1,0,236.4,130.10516)"
           style="font-variant:normal;font-weight:normal;font-size:10.4502px;font-family:Helvetica;-inkscape-font-specification:Helvetica;writing-mode:lr-tb;fill:#262626;fill-opacity:1;fill-rule:nonzero;stroke:none"
           id="text384"><tspan
             x="0 5.2251 10.4502 16.260511 19.740427 25.550739"
             y="0"
             sodipodi:role="line"
             id="tspan382">scores</tspan></text>
      </g>
      <g
         id="g386"
         transform="scale(10)">
        <text
           xml:space="preserve"
           transform="matrix(1,0,0,-1,323.4,247.568)"
           style="font-variant:normal;font-weight:bold;font-size:10.4502px;font-family:Helvetica;-inkscape-font-specification:Helvetica-Bold;writing-mode:lr-tb;fill:#000000;fill-opacity:1;fill-rule:nonzero;stroke:none"
           id="text390"><tspan
             x="0 5.2251 11.610172 17.995245 27.285473 33.095783 39.480854 42.386013 45.291168"
             y="0"
             sodipodi:role="line"
             id="tspan388">zoomed in</tspan></text>
      </g>
      <path
         d="m 2655.1,509.617 27.09,397.281 27.09,-282.449 3.06,1811.811"
         style="fill:none;stroke:#ff0000;stroke-width:4.998;stroke-linecap:butt;stroke-linejoin:round;stroke-miterlimit:10;stroke-dasharray:none;stroke-opacity:1"
         id="path392" />
      <path
         d="m 2761.24,2436.26 2.23,-1273.69 27.09,-48.03 27.09,23.68 27.1,98.67 27.1,-130.79 27.09,182.21 27.09,65.88 27.1,-69.28 27.09,74.31 27.09,-151.83 27.09,96.23 27.1,125.42 27.1,-6.69 27.09,88.16 27.09,9.41 27.1,-134.35 27.09,96.99 27.09,-14.36 27.09,115.59 27.1,-139.72 27.1,168.71 27.09,62.13 27.09,-12.39 27.1,-107.81 27.09,24.7 27.09,115.38 27.09,136.26 27.1,-243.62 27.1,28.75 27.09,46.59 27.09,-67.43 27.1,222.84 27.09,-185.23 27.09,67.5 27.09,-52.81 27.1,83.01 27.1,49.77 27.09,-71.66 27.09,161.13 27.1,-214.28 27.09,150.58 27.09,-53.88 27.1,-22.56 27.09,-31.7 27.1,275.75 27.09,-70.2 27.09,6.67 27.1,-47.72 27.09,89.47 27.09,-139.79 27.1,77.29 27.09,11.62 27.1,19.68 27.09,28.29 27.09,30.51 27.1,-44.03 27.09,10.56 27.09,-18.27 27.1,-22.19"
         style="fill:none;stroke:#ff0000;stroke-width:4.998;stroke-linecap:butt;stroke-linejoin:round;stroke-miterlimit:10;stroke-dasharray:none;stroke-opacity:1"
         id="path394" />
      <path
         d="m 2666.35,293.742 15.84,286.52 27.09,124.203 27.1,314.285 27.09,181.58 27.09,110.91 27.09,24.7 27.1,20.78 27.1,135.66 27.09,24.37 27.09,5.54 27.1,20.3 27.09,22.78 27.09,9.68 27.09,0.59 27.1,14.78 27.1,34.84 27.09,3.67 27.09,6.86 27.1,34.88 27.09,4.72 27.09,17.05 27.09,8.01 27.1,20.34 27.1,47.23 27.09,0.59 27.09,2.19 27.1,1.35 27.09,16.13 27.09,8.29 27.09,8.48 27.1,0.94 27.1,7.68 27.09,4.65 27.09,16.77 27.1,12.54 27.09,2.06 27.09,4.12 27.09,1.72 27.1,2.31 27.1,5.75 27.09,6.48 27.09,5.42 27.1,2.9 27.09,6.31 27.09,9.03 27.1,2.13 27.09,22.78 27.1,19.78 27.09,6.4 27.09,1.66 27.1,9.64 27.09,0.76 27.09,0.9 27.1,1.78 27.09,2.37 27.1,4.16 27.09,4.39 27.09,36.09 27.1,18.5 27.09,35.82 27.09,14.75 27.1,10.69"
         style="fill:none;stroke:#00ff00;stroke-width:4.998;stroke-linecap:butt;stroke-linejoin:round;stroke-miterlimit:10;stroke-dasharray:none;stroke-opacity:1"
         id="path396" />
      <path
         d="m 2655.1,1187.65 27.09,-103.4 27.09,-415.52 27.1,914.86 27.09,-240.29 27.09,-31.41 27.09,-63.58 27.1,-118.16 27.1,321.66 27.09,-129.56 27.09,-59.37 27.1,202.66 27.09,-21.58 27.09,68.26 27.09,-23.79 27.1,31.67 27.1,66.31 27.09,-174.71 27.09,224.86 27.1,-74.45 27.09,22.52 27.09,-16.85 27.09,3.53 27.1,30.79 27.1,44.24 27.09,-31.29 27.09,41.38 27.1,8.15 27.09,36.5 27.09,-93.8 27.09,-84.58 27.1,247.94 27.1,-94.5 27.09,9.55 27.09,89.01 27.1,-59.57 27.09,234.45 27.09,-194.04 27.09,-211 27.1,205.09 27.1,-36.04 27.09,-65.34 27.09,-2.89 27.1,137.03 27.09,-57.46 27.09,54.21 27.1,37.38 27.09,87.38 27.1,-261.24 27.09,160.73 27.09,-28.68 27.1,109.07 27.09,-206.97 27.09,204.95 27.1,-58.52 27.09,-73.57 27.1,42.28 27.09,70.19 27.09,-12 27.1,63.1 27.09,90.62 27.09,75.67 27.1,-56.48"
         style="fill:none;stroke:#0000ff;stroke-width:4.998;stroke-linecap:butt;stroke-linejoin:round;stroke-miterlimit:10;stroke-dasharray:none;stroke-opacity:1"
         id="path398" />
      <path
         d="M 3180,372 H 4290 V 756 H 3180 Z"
         style="fill:#ffffff;fill-opacity:1;fill-rule:nonzero;stroke:none"
         id="path400" />
      <g
         id="g402"
         transform="scale(10)">
        <text
           xml:space="preserve"
           transform="matrix(1,0,0,-1,353.298,65.0145)"
           style="font-variant:normal;font-weight:normal;font-size:8.55px;font-family:Helvetica;-inkscape-font-specification:Helvetica;writing-mode:lr-tb;fill:#000000;fill-opacity:1;fill-rule:nonzero;stroke:none"
           id="text406"><tspan
             x="0 8.0712004 12.825 17.1 21.8538 23.7519 28.505699 30.882601 33.259499 38.483551 41.3307 46.084499 50.838299 55.1133 57.4902 62.243999 65.091148"
             y="0"
             sodipodi:role="line"
             id="tspan404">Wavelet Transform</tspan></text>
      </g>
      <path
         d="m 3210.04,683.148 h 300.41"
         style="fill:none;stroke:#ff0000;stroke-width:4.998;stroke-linecap:butt;stroke-linejoin:round;stroke-miterlimit:10;stroke-dasharray:none;stroke-opacity:1"
         id="path408" />
      <g
         id="g410"
         transform="scale(10)">
        <text
           xml:space="preserve"
           transform="matrix(1,0,0,-1,353.298,53.1)"
           style="font-variant:normal;font-weight:normal;font-size:8.55px;font-family:Helvetica;-inkscape-font-specification:Helvetica;writing-mode:lr-tb;fill:#000000;fill-opacity:1;fill-rule:nonzero;stroke:none"
           id="text414"><tspan
             x="0 6.6518998 11.4057 13.3038 18.0576 22.811399 27.565201 29.942101 35.166149 37.064251 38.962349 41.339249 46.093048 48.940201 50.838299 55.592098"
             y="0"
             sodipodi:role="line"
             id="tspan412">Guided Filtering</tspan></text>
      </g>
      <path
         d="m 3210.04,564 h 300.41"
         style="fill:none;stroke:#00ff00;stroke-width:4.998;stroke-linecap:butt;stroke-linejoin:round;stroke-miterlimit:10;stroke-dasharray:none;stroke-opacity:1"
         id="path416" />
      <g
         id="g418"
         transform="scale(10)">
        <text
           xml:space="preserve"
           transform="matrix(1,0,0,-1,353.298,41.1855)"
           style="font-variant:normal;font-weight:normal;font-size:8.55px;font-family:Helvetica;-inkscape-font-specification:Helvetica;writing-mode:lr-tb;fill:#000000;fill-opacity:1;fill-rule:nonzero;stroke:none"
           id="text422"><tspan
             x="0 7.1221499 11.87595 14.25285 16.150949 20.904751 25.65855 28.03545 34.208549 36.585449 41.339249 45.61425 47.512348 54.634499"
             y="0"
             sodipodi:role="line"
             id="tspan420">Matlab wfusimg</tspan></text>
      </g>
      <path
         d="m 3210.04,444.852 h 300.41"
         style="fill:none;stroke:#0000ff;stroke-width:4.998;stroke-linecap:butt;stroke-linejoin:round;stroke-miterlimit:10;stroke-dasharray:none;stroke-opacity:1"
         id="path424" />
      <path
         d="M 3180,372 H 4290 V 756 H 3180 Z"
         style="fill:none;stroke:#262626;stroke-width:4.998;stroke-linecap:butt;stroke-linejoin:miter;stroke-miterlimit:10;stroke-dasharray:none;stroke-opacity:1"
         id="path426" />
      <g
         id="g428"
         transform="scale(10)">
        <text
           xml:space="preserve"
           transform="matrix(1,0,0,-1,112.8,272.4)"
           style="font-variant:normal;font-weight:normal;font-size:13.9998px;font-family:Helvetica;-inkscape-font-specification:Helvetica;writing-mode:lr-tb;fill:#000000;fill-opacity:1;fill-rule:nonzero;stroke:none"
           id="text432"><tspan
             x="0"
             y="0"
             id="tspan430">Q</tspan></text>
        <text
           xml:space="preserve"
           transform="matrix(1,0,0,-1,124.2,265.8)"
           style="font-variant:normal;font-weight:normal;font-size:11.2002px;font-family:Helvetica;-inkscape-font-specification:Helvetica;writing-mode:lr-tb;fill:#000000;fill-opacity:1;fill-rule:nonzero;stroke:none"
           id="text436"><tspan
             x="0"
             y="0"
             id="tspan434">C</tspan></text>
        <text
           xml:space="preserve"
           transform="matrix(1,0,0,-1,136.49194,272.4)"
           style="font-variant:normal;font-weight:normal;font-size:13.9998px;font-family:Helvetica;-inkscape-font-specification:Helvetica;writing-mode:lr-tb;fill:#000000;fill-opacity:1;fill-rule:nonzero;stroke:none"
           id="text440"><tspan
             x="0 6.9998999 13.9998 21.783689 26.445621 34.229511 41.229412 45.121357 49.013298 56.013199 63.797089 68.459023 72.350967 80.134857 87.918747 91.810692 95.702629 103.48652 108.14845 112.0404 119.82429 127.60818 130.71613 138.50002 146.28391 154.06779 157.95975 161.85168 164.95964 168.0676 171.95955 179.74344 184.40536 187.51332 195.29721"
             y="0"
             sodipodi:role="line"
             id="tspan438">scores, sorted for guided filtering</tspan></text>
      </g>
    </g>
  </g>
</svg>
